<svg width="331" height="884" viewBox="0 0 331 884" fill="none" xmlns="http://www.w3.org/2000/svg">
<g style="mix-blend-mode:multiply">
<path d="M328.156 657.318L328.156 655.779L325.049 658.902L325.809 659.672L328.156 657.318Z" fill="#F9EFF9"/>
<path d="M328.156 642.493L328.156 640.735L317.54 651.38L318.42 652.255L328.156 642.493Z" fill="#F9EFF9"/>
<path d="M328.156 627.676L328.156 625.685L310.038 643.851L311.031 644.847L328.156 627.676Z" fill="#F9EFF9"/>
<path d="M328.156 612.852L328.156 610.634L302.537 636.329L303.643 637.438L328.156 612.852Z" fill="#F9EFF9"/>
<path d="M328.156 598.035L328.156 595.59L295.028 628.808L296.254 630.03L328.156 598.035Z" fill="#F9EFF9"/>
<path d="M328.156 583.218L328.156 580.54L287.526 621.279L288.858 622.621L328.156 583.218Z" fill="#F9EFF9"/>
<path d="M328.156 568.393L328.156 565.489L280.025 613.757L281.469 615.206L328.156 568.393Z" fill="#F9EFF9"/>
<path d="M328.156 553.576L328.156 551.479L327.125 551.479L272.515 606.235L274.08 607.797L328.156 553.576Z" fill="#F9EFF9"/>
<path d="M315.47 551.479L312.114 551.479L265.013 598.706L266.691 600.389L315.47 551.479Z" fill="#F9EFF9"/>
<path d="M300.686 551.479L297.112 551.479L257.512 591.185L259.295 592.98L300.686 551.479Z" fill="#F9EFF9"/>
<path d="M285.908 551.479L282.101 551.479L250.003 583.663L251.907 585.564L285.908 551.479Z" fill="#F9EFF9"/>
<path d="M271.124 551.479L267.091 551.479L242.502 576.134L244.519 578.156L271.124 551.479Z" fill="#F9EFF9"/>
<path d="M256.347 551.479L252.088 551.479L235.001 568.612L237.13 570.747L256.347 551.479Z" fill="#F9EFF9"/>
<path d="M241.561 551.479L237.076 551.479L227.49 561.083L229.74 563.339L241.561 551.479Z" fill="#F9EFF9"/>
<path d="M226.784 551.479L222.067 551.479L219.99 553.561L222.345 555.93L226.784 551.479Z" fill="#F9EFF9"/>
<path d="M331 547.179L331 545.647L327.885 548.763L328.652 549.532L331 547.179Z" fill="#F9EFF9"/>
<path d="M331 532.362L331 530.597L320.383 541.242L321.264 542.124L331 532.362Z" fill="#F9EFF9"/>
<path d="M331 517.537L331 515.546L312.882 533.72L313.875 534.708L331 517.537Z" fill="#F9EFF9"/>
<path d="M331 502.72L331 500.502L305.373 526.191L306.479 527.3L331 502.72Z" fill="#F9EFF9"/>
<path d="M331 487.896L331 485.452L297.871 518.669L299.09 519.891L331 487.896Z" fill="#F9EFF9"/>
<path d="M331 473.079L331 470.401L290.37 511.147L291.702 512.483L331 473.079Z" fill="#F9EFF9"/>
<path d="M331 458.254L331 455.357L282.861 503.618L284.313 505.074L331 458.254Z" fill="#F9EFF9"/>
<path d="M331 443.438L331 441.34L329.969 441.34L275.359 496.097L276.917 497.658L331 443.438Z" fill="#F9EFF9"/>
<path d="M318.307 441.34L314.958 441.34L267.857 488.567L269.528 490.25L318.307 441.34Z" fill="#F9EFF9"/>
<path d="M303.529 441.34L299.948 441.34L260.348 481.046L262.139 482.841L303.529 441.34Z" fill="#F9EFF9"/>
<path d="M288.745 441.34L284.945 441.34L252.848 473.524L254.751 475.433L288.745 441.34Z" fill="#F9EFF9"/>
<path d="M273.967 441.34L269.934 441.34L245.345 465.995L247.362 468.017L273.967 441.34Z" fill="#F9EFF9"/>
<path d="M259.191 441.34L254.925 441.34L237.838 458.473L239.967 460.608L259.191 441.34Z" fill="#F9EFF9"/>
<path d="M244.405 441.34L239.921 441.34L230.335 450.951L232.577 453.2L244.405 441.34Z" fill="#F9EFF9"/>
<path d="M229.627 441.34L224.909 441.34L222.833 443.422L225.188 445.791L229.627 441.34Z" fill="#F9EFF9"/>
<path d="M331 436.361L331 434.822L327.885 437.945L328.652 438.707L331 436.361Z" fill="#F9EFF9"/>
<path d="M331 421.536L331 419.779L320.383 430.416L321.264 431.299L331 421.536Z" fill="#F9EFF9"/>
<path d="M331 406.719L331 404.728L312.882 422.894L313.875 423.89L331 406.719Z" fill="#F9EFF9"/>
<path d="M331 391.895L331 389.677L305.373 415.373L306.479 416.482L331 391.895Z" fill="#F9EFF9"/>
<path d="M331 377.078L331 374.634L297.871 407.844L299.09 409.073L331 377.078Z" fill="#F9EFF9"/>
<path d="M331 362.253L331 359.583L290.37 400.322L291.702 401.657L331 362.253Z" fill="#F9EFF9"/>
<path d="M331 347.437L331 344.532L282.861 392.8L284.313 394.249L331 347.437Z" fill="#F9EFF9"/>
<path d="M331 332.612L331 330.522L329.969 330.522L275.359 385.271L276.917 386.84L331 332.612Z" fill="#F9EFF9"/>
<path d="M318.307 330.522L314.958 330.522L267.857 377.749L269.528 379.432L318.307 330.522Z" fill="#F9EFF9"/>
<path d="M303.529 330.522L299.948 330.522L260.348 370.228L262.139 372.016L303.529 330.522Z" fill="#F9EFF9"/>
<path d="M288.745 330.522L284.945 330.522L252.848 362.699L254.751 364.607L288.745 330.522Z" fill="#F9EFF9"/>
<path d="M273.967 330.522L269.934 330.522L245.345 355.177L247.362 357.199L273.967 330.522Z" fill="#F9EFF9"/>
<path d="M259.191 330.522L254.925 330.522L237.838 347.655L239.967 349.79L259.191 330.522Z" fill="#F9EFF9"/>
<path d="M244.405 330.522L239.921 330.522L230.335 340.126L232.577 342.382L244.405 330.522Z" fill="#F9EFF9"/>
<path d="M229.627 330.522L224.909 330.522L222.833 332.604L225.188 334.966L229.627 330.522Z" fill="#F9EFF9"/>
<path d="M331 215.985L331 214.454L327.885 217.569L328.652 218.339L331 215.985Z" fill="#F9EFF9"/>
<path d="M331 201.168L331 199.403L320.383 210.048L321.264 210.93L331 201.168Z" fill="#F9EFF9"/>
<path d="M331 186.344L331 184.352L312.882 202.526L313.875 203.514L331 186.344Z" fill="#F9EFF9"/>
<path d="M331 171.527L331 169.309L305.373 194.997L306.479 196.106L331 171.527Z" fill="#F9EFF9"/>
<path d="M331 156.702L331 154.258L297.871 187.475L299.09 188.697L331 156.702Z" fill="#F9EFF9"/>
<path d="M331 141.885L331 139.207L290.37 179.954L291.702 181.289L331 141.885Z" fill="#F9EFF9"/>
<path d="M331 127.061L331 124.164L282.861 172.424L284.313 173.88L331 127.061Z" fill="#F9EFF9"/>
<path d="M331 112.244L331 110.146L329.969 110.146L275.359 164.903L276.917 166.464L331 112.244Z" fill="#F9EFF9"/>
<path d="M318.307 110.146L314.958 110.146L267.857 157.374L269.528 159.056L318.307 110.146Z" fill="#F9EFF9"/>
<path d="M303.529 110.146L299.948 110.146L260.348 149.852L262.139 151.647L303.529 110.146Z" fill="#F9EFF9"/>
<path d="M288.745 110.146L284.945 110.146L252.848 142.33L254.751 144.239L288.745 110.146Z" fill="#F9EFF9"/>
<path d="M273.967 110.146L269.934 110.146L245.345 134.801L247.362 136.823L273.967 110.146Z" fill="#F9EFF9"/>
<path d="M259.19 110.146L254.924 110.146L237.837 127.279L239.966 129.414L259.19 110.146Z" fill="#F9EFF9"/>
<path d="M244.405 110.146L239.921 110.146L230.335 119.758L232.577 122.006L244.405 110.146Z" fill="#F9EFF9"/>
<path d="M229.627 110.146L224.909 110.146L222.833 112.229L225.188 114.598L229.627 110.146Z" fill="#F9EFF9"/>
<path d="M217.671 110.146L216.136 110.146L219.251 113.27L220.019 112.5L217.671 110.146Z" fill="#F9EFF9"/>
<path d="M202.886 110.146L201.133 110.146L211.749 120.791L212.622 119.909L202.886 110.146Z" fill="#F9EFF9"/>
<path d="M188.109 110.146L186.123 110.146L204.241 128.313L205.234 127.317L188.109 110.146Z" fill="#F9EFF9"/>
<path d="M173.325 110.146L171.113 110.146L196.74 135.842L197.846 134.733L173.325 110.146Z" fill="#F9EFF9"/>
<path d="M158.546 110.146L156.108 110.146L189.237 143.364L190.456 142.142L158.546 110.146Z" fill="#F9EFF9"/>
<path d="M143.769 110.146L141.098 110.146L181.728 150.886L183.067 149.55L143.769 110.146Z" fill="#F9EFF9"/>
<path d="M128.984 110.146L126.087 110.146L174.226 158.415L175.671 156.959L128.984 110.146Z" fill="#F9EFF9"/>
<path d="M114.207 110.146L112.116 110.146L112.116 111.18L166.726 165.936L168.283 164.375L114.207 110.146Z" fill="#F9EFF9"/>
<path d="M112.116 122.874L112.116 126.231L159.217 173.458L160.895 171.783L112.116 122.874Z" fill="#F9EFF9"/>
<path d="M112.116 137.691L112.116 141.282L151.715 180.987L153.506 179.192L112.116 137.691Z" fill="#F9EFF9"/>
<path d="M112.115 152.515L112.115 156.325L144.213 188.509L146.109 186.6L112.115 152.515Z" fill="#F9EFF9"/>
<path d="M112.116 167.332L112.116 171.376L136.705 196.03L138.722 194.009L112.116 167.332Z" fill="#F9EFF9"/>
<path d="M112.115 182.149L112.115 186.427L129.203 203.56L131.332 201.425L112.115 182.149Z" fill="#F9EFF9"/>
<path d="M112.114 196.974L112.114 201.47L121.693 211.081L123.942 208.833L112.114 196.974Z" fill="#F9EFF9"/>
<path d="M112.115 211.79L112.115 216.521L114.192 218.603L116.547 216.242L112.115 211.79Z" fill="#F9EFF9"/>
<path d="M109.182 768.226L109.182 766.694L106.074 769.81L106.842 770.58L109.182 768.226Z" fill="#F9EFF9"/>
<path d="M109.182 753.409L109.182 751.644L98.5726 762.289L99.4454 763.171L109.182 753.409Z" fill="#F9EFF9"/>
<path d="M109.182 738.585L109.182 736.593L91.0636 754.767L92.0568 755.755L109.182 738.585Z" fill="#F9EFF9"/>
<path d="M109.182 723.768L109.182 721.55L83.5621 747.238L84.6681 748.347L109.182 723.768Z" fill="#F9EFF9"/>
<path d="M109.182 708.943L109.182 706.499L76.053 739.716L77.2794 740.938L109.182 708.943Z" fill="#F9EFF9"/>
<path d="M109.182 694.126L109.182 691.448L68.5515 732.195L69.8832 733.53L109.182 694.126Z" fill="#F9EFF9"/>
<path d="M109.182 679.302L109.182 676.405L61.0499 724.665L62.4946 726.121L109.182 679.302Z" fill="#F9EFF9"/>
<path d="M109.182 664.485L109.182 662.387L108.151 662.387L53.5409 717.144L55.1059 718.705L109.182 664.485Z" fill="#F9EFF9"/>
<path d="M96.4951 662.387L93.1394 662.387L46.0385 709.615L47.7163 711.297L96.4951 662.387Z" fill="#F9EFF9"/>
<path d="M81.7109 662.387L78.137 662.387L38.5376 702.093L40.3208 703.888L81.7109 662.387Z" fill="#F9EFF9"/>
<path d="M66.9336 662.387L63.1264 662.387L31.0286 694.571L32.9322 696.48L66.9336 662.387Z" fill="#F9EFF9"/>
<path d="M52.1494 662.387L48.1165 662.387L23.5277 687.042L25.5442 689.064L52.1494 662.387Z" fill="#F9EFF9"/>
<path d="M37.3721 662.387L33.1134 662.387L16.0262 679.521L18.1555 681.656L37.3721 662.387Z" fill="#F9EFF9"/>
<path d="M22.5928 662.387L18.1009 662.387L8.51517 671.999L10.7649 674.247L22.5928 662.387Z" fill="#F9EFF9"/>
<path d="M7.80859 662.387L3.09099 662.387L1.01433 664.47L3.36937 666.839L7.80859 662.387Z" fill="#F9EFF9"/>
<path d="M1.70044 222.647L1.70044 224.178L4.81543 221.062L4.04796 220.293L1.70044 222.647Z" fill="#F9EFF9"/>
<path d="M1.69988 237.464L1.69988 239.229L12.3164 228.584L11.4436 227.701L1.69988 237.464Z" fill="#F9EFF9"/>
<path d="M1.69962 252.288L1.69962 254.28L19.8252 236.106L18.832 235.11L1.69962 252.288Z" fill="#F9EFF9"/>
<path d="M1.69907 267.105L1.69906 269.323L27.3262 243.635L26.2201 242.526L1.69907 267.105Z" fill="#F9EFF9"/>
<path d="M1.69948 281.93L1.69948 284.374L34.8281 251.156L33.6092 249.934L1.69948 281.93Z" fill="#F9EFF9"/>
<path d="M1.6992 296.747L1.6992 299.425L42.3369 258.678L40.9976 257.343L1.6992 296.747Z" fill="#F9EFF9"/>
<path d="M1.70059 311.571L1.70059 314.468L49.8398 266.207L48.3952 264.751L1.70059 311.571Z" fill="#F9EFF9"/>
<path d="M1.69906 326.388L1.69906 328.485L2.73739 328.485L57.3398 273.729L55.7823 272.167L1.69906 326.388Z" fill="#F9EFF9"/>
<path d="M14.3929 328.485L17.7412 328.485L64.8496 281.251L63.1717 279.576L14.3929 328.485Z" fill="#F9EFF9"/>
<path d="M29.1707 328.485L32.7522 328.485L72.3516 288.78L70.5608 286.984L29.1707 328.485Z" fill="#F9EFF9"/>
<path d="M43.956 328.485L47.7632 328.485L79.8535 296.301L77.9574 294.393L43.956 328.485Z" fill="#F9EFF9"/>
<path d="M58.7321 328.485L62.765 328.485L87.3613 303.823L85.3449 301.801L58.7321 328.485Z" fill="#F9EFF9"/>
<path d="M73.5164 328.485L77.7751 328.485L94.8623 311.352L92.733 309.217L73.5164 328.485Z" fill="#F9EFF9"/>
<path d="M88.2942 328.485L92.7861 328.485L102.364 318.874L100.122 316.626L88.2942 328.485Z" fill="#F9EFF9"/>
<path d="M103.08 328.485L107.79 328.485L109.874 326.403L107.511 324.034L103.08 328.485Z" fill="#F9EFF9"/>
<path d="M331 105.839L331 104.307L327.885 107.423L328.652 108.192L331 105.839Z" fill="#F9EFF9"/>
<path d="M331 91.0217L331 89.2563L320.383 99.9013L321.264 100.784L331 91.0217Z" fill="#F9EFF9"/>
<path d="M331 76.1973L331 74.2056L312.882 92.3797L313.875 93.368L331 76.1973Z" fill="#F9EFF9"/>
<path d="M331 61.3802L331 59.1622L305.373 84.8504L306.479 85.9594L331 61.3802Z" fill="#F9EFF9"/>
<path d="M331 46.5557L331 44.1114L297.871 77.3288L299.09 78.551L331 46.5557Z" fill="#F9EFF9"/>
<path d="M331 31.7388L331 29.0605L290.37 69.8072L291.702 71.1425L331 31.7388Z" fill="#F9EFF9"/>
<path d="M331 16.9143L331 14.0173L282.861 62.278L284.313 63.734L331 16.9143Z" fill="#F9EFF9"/>
<path d="M331 2.09731L331 0L329.969 -4.50578e-08L275.359 54.7563L276.917 56.318L331 2.09731Z" fill="#F9EFF9"/>
<path d="M318.307 0L314.958 -1.46356e-07L267.857 47.2272L269.528 48.9095L318.307 0Z" fill="#F9EFF9"/>
<path d="M303.529 0L299.948 -1.56551e-07L260.348 39.7055L262.139 41.5011L303.529 0Z" fill="#F9EFF9"/>
<path d="M288.745 0L284.945 -1.66089e-07L252.848 32.1839L254.751 34.0926L288.745 0Z" fill="#F9EFF9"/>
<path d="M273.967 0L269.934 -1.76285e-07L245.345 24.6547L247.362 26.6766L273.967 0Z" fill="#F9EFF9"/>
<path d="M259.19 0L254.924 -1.8648e-07L237.837 17.133L239.966 19.2681L259.19 0Z" fill="#F9EFF9"/>
<path d="M244.405 0L239.921 -1.96018e-07L230.335 9.61141L232.577 11.8596L244.405 0Z" fill="#F9EFF9"/>
<path d="M229.627 0L224.909 -2.06214e-07L222.833 2.08222L225.188 4.45112L229.627 0Z" fill="#F9EFF9"/>
<path d="M110.145 551.486L220.02 441.34L110.145 441.34L110.145 551.486Z" fill="#F9EFF9"/>
<path d="M110.145 882.68L220.02 772.534L110.145 772.534L110.145 882.68Z" fill="#F9EFF9"/>
<path d="M110.145 330.439L220.02 220.293L110.145 220.293L110.145 330.439Z" fill="#F9EFF9"/>
<path d="M220.02 220.293L110.145 330.439L220.02 330.439L220.02 220.293Z" fill="#F7E7F7"/>
<path d="M0.0220566 220.293L109.874 330.462L109.874 220.293L0.0220566 220.293Z" fill="#F7E7F7"/>
<path d="M220.02 0L110.145 110.146L220.02 110.146L220.02 0Z" fill="#F9EFF9"/>
<path d="M220.02 110.146L110.145 220.293L220.02 220.293L220.02 110.146Z" fill="#F7E7F7"/>
<path d="M212.209 432.785L212.209 330.522L220.019 330.522L220.019 440.691L212.209 432.785Z" fill="#F9EFF9"/>
<path d="M200.786 421.34L200.786 330.522L209.401 330.522L209.401 429.971L200.786 421.34Z" fill="#F9EFF9"/>
<path d="M189.374 409.888L189.374 330.522L198.154 330.522L198.154 418.692L189.374 409.888Z" fill="#F9EFF9"/>
<path d="M177.951 398.436L177.951 330.522L186.912 330.522L186.912 407.421L177.951 398.436Z" fill="#F9EFF9"/>
<path d="M166.529 386.991L166.529 330.522L175.663 330.522L175.663 396.142L166.529 386.991Z" fill="#F9EFF9"/>
<path d="M155.116 375.539L155.116 330.522L164.416 330.522L164.416 384.871L155.116 375.539Z" fill="#F9EFF9"/>
<path d="M143.694 364.087L143.694 330.522L153.175 330.522L153.175 373.593L143.694 364.087Z" fill="#F9EFF9"/>
<path d="M132.281 352.642L132.281 330.522L141.927 330.522L141.927 362.314L132.281 352.642Z" fill="#F9EFF9"/>
<path d="M120.857 341.19L120.857 330.522L130.684 330.522L130.684 351.043L120.857 341.19Z" fill="#F9EFF9"/>
<path d="M110.213 330.522L109.438 330.522L119.438 330.522L119.437 339.764L110.213 330.522Z" fill="#F9EFF9"/>
<path d="M212.209 432.785L212.209 330.522L220.019 330.522L220.019 440.691L212.209 432.785Z" fill="#F9EFF9"/>
<path d="M200.786 421.34L200.786 330.522L209.401 330.522L209.401 429.971L200.786 421.34Z" fill="#F9EFF9"/>
<path d="M189.374 409.888L189.374 330.522L198.154 330.522L198.154 418.692L189.374 409.888Z" fill="#F9EFF9"/>
<path d="M177.951 398.436L177.951 330.522L186.912 330.522L186.912 407.421L177.951 398.436Z" fill="#F9EFF9"/>
<path d="M166.529 386.991L166.529 330.522L175.663 330.522L175.663 396.142L166.529 386.991Z" fill="#F9EFF9"/>
<path d="M155.116 375.539L155.116 330.522L164.416 330.522L164.416 384.871L155.116 375.539Z" fill="#F9EFF9"/>
<path d="M143.694 364.087L143.694 330.522L153.175 330.522L153.175 373.593L143.694 364.087Z" fill="#F9EFF9"/>
<path d="M132.281 352.642L132.281 330.522L141.927 330.522L141.927 362.314L132.281 352.642Z" fill="#F9EFF9"/>
<path d="M120.857 341.19L120.857 330.522L130.684 330.522L130.684 351.043L120.857 341.19Z" fill="#F9EFF9"/>
<path d="M110.213 330.522L109.438 330.522L119.438 330.522L119.437 339.764L110.213 330.522Z" fill="#F9EFF9"/>
<path d="M0.0220566 551.479L109.874 661.648L109.874 551.479L0.0220566 551.479Z" fill="#F9EFF9"/>
<mask id="mask0_524_249" style="mask-type:luminance" maskUnits="userSpaceOnUse" x="0" y="551" width="110" height="111">
<path d="M0.0220566 551.479L109.874 661.648L109.874 551.479L0.0220566 551.479Z" fill="white"/>
</mask>
<g mask="url(#mask0_524_249)">
<path d="M111.493 665.065L111.493 658.841L95.7301 658.819L101.29 665.05L111.493 665.065Z" fill="#F9EFF9"/>
<path d="M111.509 656.224L111.509 649.864L87.71 649.826L93.3907 656.193L111.501 656.224L111.509 656.224Z" fill="#F9EFF9"/>
<path d="M111.523 647.389L111.523 640.894L79.6958 640.848L85.5044 647.352L111.53 647.389L111.523 647.389Z" fill="#F9EFF9"/>
<path d="M111.537 638.555L111.537 631.924L71.6744 631.863L77.6034 638.502L111.537 638.555Z" fill="#F9EFF9"/>
<path d="M111.545 629.713L111.545 622.946L63.6465 622.87L69.6958 629.645L111.545 629.705L111.545 629.713Z" fill="#F9EFF9"/>
<path d="M111.561 620.879L111.561 613.976L55.6338 613.893L61.8036 620.803L111.561 620.879Z" fill="#F9EFF9"/>
<path d="M111.575 612.044L111.575 605.006L47.6128 604.907L53.9029 611.954L111.575 612.037L111.575 612.044Z" fill="#F9EFF9"/>
<path d="M111.59 603.202L111.59 596.028L39.5917 595.922L46.0022 603.104L111.582 603.202L111.59 603.202Z" fill="#F9EFF9"/>
<path d="M111.598 594.368L111.598 587.058L31.5637 586.937L38.1022 594.255L111.598 594.368Z" fill="#F9EFF9"/>
<path d="M111.614 585.534L111.614 578.088L23.5514 577.959L30.2103 585.413L111.621 585.534L111.614 585.534Z" fill="#F9EFF9"/>
<path d="M111.629 576.692L111.644 569.11L15.5306 568.967L22.3098 576.564L111.629 576.699L111.629 576.692Z" fill="#F9EFF9"/>
<path d="M111.643 567.857L111.658 560.14L7.51702 559.981L14.4166 567.714L111.651 567.857L111.643 567.857Z" fill="#F9EFF9"/>
<path d="M111.666 551.162L-0.510902 550.996L6.5091 558.865L111.651 559.023L111.666 551.162Z" fill="#F9EFF9"/>
</g>
<path d="M0.0220518 440.691L109.874 330.522L109.874 440.691L0.0220518 440.691Z" fill="#F9EFF9"/>
<mask id="mask1_524_249" style="mask-type:luminance" maskUnits="userSpaceOnUse" x="0" y="330" width="110" height="111">
<path d="M0.0220518 440.691L109.874 330.522L109.874 440.691L0.0220518 440.691Z" fill="white"/>
</mask>
<g mask="url(#mask1_524_249)">
<path d="M101.299 327.12L95.7383 333.351L111.509 333.329L111.509 327.105L101.299 327.12Z" fill="#F9EFF9"/>
<path d="M93.3988 335.969L87.7182 342.337L111.524 342.299L111.524 335.939L93.3988 335.969Z" fill="#F9EFF9"/>
<path d="M85.4969 344.811L79.6882 351.314L111.53 351.269L111.53 344.773L85.4969 344.811Z" fill="#F9EFF9"/>
<path d="M77.5958 353.661L71.6668 360.3L111.537 360.239L111.537 353.608L77.5883 353.661L77.5958 353.661Z" fill="#F9EFF9"/>
<path d="M69.7039 362.51L63.6546 369.285L111.561 369.209L111.561 362.442L69.7039 362.502L69.7039 362.51Z" fill="#F9EFF9"/>
<path d="M61.8032 371.359L55.6334 378.27L111.575 378.187L111.575 371.284L61.8032 371.359Z" fill="#F9EFF9"/>
<path d="M53.9025 380.209L47.6123 387.255L111.59 387.157L111.59 380.118L53.91 380.201L53.9025 380.209Z" fill="#F9EFF9"/>
<path d="M46.0025 389.058L39.5919 396.24L111.598 396.135L111.598 388.96L46.0025 389.058Z" fill="#F9EFF9"/>
<path d="M38.1025 397.908L31.564 405.226L111.605 405.105L111.605 397.795L38.1025 397.908Z" fill="#F9EFF9"/>
<path d="M30.2096 406.757L23.5507 414.211L111.628 414.083L111.628 406.636L30.2096 406.757Z" fill="#F9EFF9"/>
<path d="M22.3089 415.607L15.5296 423.204L111.643 423.06L111.628 415.478L22.3089 415.614L22.3089 415.607Z" fill="#F9EFF9"/>
<path d="M14.4098 424.456L7.51018 432.189L111.651 432.03L111.636 424.313L14.4023 424.456L14.4098 424.456Z" fill="#F9EFF9"/>
<path d="M111.666 441.001L111.651 433.147L6.5091 433.298L-0.510903 441.167L111.666 441.001Z" fill="#F9EFF9"/>
</g>
<path d="M109.874 220.293L-0.000526428 110.146L109.874 110.146L109.874 220.293Z" fill="#F9EFF9"/>
<mask id="mask2_524_249" style="mask-type:luminance" maskUnits="userSpaceOnUse" x="-1" y="110" width="111" height="111">
<path d="M109.874 220.293L-0.000526428 110.146L109.874 110.146L109.874 220.293Z" fill="white"/>
</mask>
<g mask="url(#mask2_524_249)">
<path d="M-3.39458 118.747L2.82031 124.322L2.79774 108.509L-3.40965 108.509L-3.39458 118.747Z" fill="#F9EFF9"/>
<path d="M5.4309 126.668L11.7812 132.364L11.7436 108.494L5.40082 108.494L5.4309 126.668Z" fill="#F9EFF9"/>
<path d="M14.2574 134.59L20.7432 140.414L20.698 108.487L14.2198 108.487L14.2574 134.59Z" fill="#F9EFF9"/>
<path d="M23.0829 142.504L29.7041 148.449L29.6439 108.472L23.0302 108.472L23.0829 142.511L23.0829 142.504Z" fill="#F9EFF9"/>
<path d="M31.9016 150.425L38.6582 156.491L38.583 108.457L31.8339 108.457L31.894 150.425L31.9016 150.425Z" fill="#F9EFF9"/>
<path d="M40.7271 158.347L47.6191 164.533L47.5364 108.441L40.6518 108.441L40.7271 158.347Z" fill="#F9EFF9"/>
<path d="M49.5516 166.268L56.5791 172.575L56.4813 108.427L49.4613 108.427L49.5441 166.261L49.5516 166.268Z" fill="#F9EFF9"/>
<path d="M58.3781 174.19L65.541 180.618L65.4357 108.419L58.2803 108.419L58.3781 174.19Z" fill="#F9EFF9"/>
<path d="M67.2045 182.104L74.5029 188.66L74.3825 108.404L67.0917 108.404L67.2045 182.104Z" fill="#F9EFF9"/>
<path d="M76.03 190.025L83.4639 196.702L83.3359 108.389L75.9097 108.389L76.03 190.025Z" fill="#F9EFF9"/>
<path d="M84.8558 197.947L92.4326 204.744L92.2897 108.374L84.7279 108.389L84.8634 197.947L84.8558 197.947Z" fill="#F9EFF9"/>
<path d="M93.6813 205.868L101.394 212.786L101.236 108.366L93.5384 108.381L93.6813 205.876L93.6813 205.868Z" fill="#F9EFF9"/>
<path d="M110.181 108.351L102.349 108.358L102.507 213.79L110.347 220.828L110.181 108.351Z" fill="#F9EFF9"/>
</g>
<path d="M323.19 322.563L323.19 220.293L331 220.293L331 330.462L323.19 322.563Z" fill="#F9EFF9"/>
<path d="M311.776 311.111L311.776 220.293L320.384 220.293L320.384 319.741L311.776 311.111Z" fill="#F9EFF9"/>
<path d="M300.354 299.659L300.354 220.293L309.143 220.293L309.143 308.47L300.354 299.659Z" fill="#F9EFF9"/>
<path d="M288.932 288.214L288.932 220.293L297.894 220.293L297.894 297.192L288.932 288.214Z" fill="#F9EFF9"/>
<path d="M277.518 276.762L277.518 220.293L286.645 220.293L286.645 285.92L277.518 276.762Z" fill="#F9EFF9"/>
<path d="M266.097 265.317L266.097 220.293L275.404 220.293L275.404 274.642L266.097 265.317Z" fill="#F9EFF9"/>
<path d="M254.683 253.865L254.683 220.293L264.156 220.293L264.156 263.363L254.683 253.865Z" fill="#F9EFF9"/>
<path d="M243.261 242.413L243.261 220.293L252.914 220.293L252.914 252.092L243.261 242.413Z" fill="#F9EFF9"/>
<path d="M231.839 230.968L231.839 220.293L241.665 220.293L241.665 240.813L231.839 230.968Z" fill="#F9EFF9"/>
<path d="M221.202 220.293L220.427 220.293L230.419 220.293L230.419 229.542L221.202 220.293Z" fill="#F9EFF9"/>
<path d="M219.989 773.213L329.863 663.066L219.989 663.066L219.989 773.213Z" fill="#F9EFF9"/>
<path d="M322.754 875.558L322.754 773.296L330.564 773.296L330.564 883.465L322.754 875.558Z" fill="#F9EFF9"/>
<path d="M311.34 864.114L311.34 773.296L319.947 773.296L319.947 872.744L311.34 864.114Z" fill="#F9EFF9"/>
<path d="M299.919 852.661L299.919 773.296L308.707 773.296L308.707 861.473L299.919 852.661Z" fill="#F9EFF9"/>
<path d="M288.504 841.217L288.504 773.296L297.458 773.296L297.458 850.194L288.504 841.217Z" fill="#F9EFF9"/>
<path d="M277.083 829.765L277.083 773.296L286.217 773.296L286.217 838.923L277.083 829.765Z" fill="#F9EFF9"/>
<path d="M265.661 818.312L265.661 773.296L274.969 773.296L274.969 827.645L265.661 818.312Z" fill="#F9EFF9"/>
<path d="M254.248 806.868L254.248 773.296L263.721 773.296L263.721 816.366L254.248 806.868Z" fill="#F9EFF9"/>
<path d="M242.825 795.415L242.825 773.296L252.479 773.296L252.479 805.095L242.825 795.415Z" fill="#F9EFF9"/>
<path d="M231.411 783.971L231.411 773.296L241.229 773.296L241.229 793.816L231.411 783.971Z" fill="#F9EFF9"/>
<path d="M220.766 773.296L219.991 773.296L229.99 773.296L229.99 782.545L220.766 773.296Z" fill="#F9EFF9"/>
</g>
</svg>
